# xmcd
#
# Track frame offsets:
#	150
#	19534
#	35842
#	50610
#	66200
#	82848
#	99635
#	116168
#	131835
#	146345
# Disc length: 2167 seconds
# Revision: 1
# Processed by: cddbd v1.5.2PL0 Copyright (c) Steve Scherf et al.
#
# Submitted via: libkcddb 0.31
#
DISCID=8908750a
DTITLE=บุญตา  เมืองใหม่  ชุดที่ 2 - คนดีที่อ้ายบ่ฮัก
DYEAR=2005
DGENRE=Country
TTITLE0=คนดีที่อ้ายบ่ฮัก
TTITLE1=สาวศรีเมืองใหม่
TTITLE2=สาวโรงงานคนเหงา
TTITLE3=แถมให้ก็บ่เอา
TTITLE4=ม่ายมัดหมี่
TTITLE5=หอมกลิ่นข้าวจี่
TTITLE6=สาวผานางคอย
TTITLE7=สาวนาอารมณ์ดี
TTITLE8=สวย 199
TTITLE9=คอยเขาบอกฮัก
EXTD=
EXTT0=
EXTT1=
EXTT2=
EXTT3=
EXTT4=
EXTT5=
EXTT6=
EXTT7=
EXTT8=
EXTT9=
PLAYORDER=
